<svg width="97" height="97" viewBox="0 0 97 97" fill="none" xmlns="http://www.w3.org/2000/svg">
<path fill-rule="evenodd" clip-rule="evenodd" d="M90.4265 23.806C89.572 24.6527 89.1831 25.8694 89.3847 27.0616L90.6762 34.6966C91.0794 37.0762 89.2119 39.0084 87.0995 39.0084C86.5426 39.0084 85.9665 38.8719 85.4097 38.575L78.6453 34.9695C78.1172 34.6873 77.5363 34.5456 76.9554 34.5456C76.3745 34.5456 75.7984 34.6873 75.2655 34.9695L68.5011 38.575C67.9442 38.8719 67.3681 39.0084 66.8112 39.0084C64.6988 39.0084 62.8361 37.0762 63.2346 34.6966L64.5308 27.0616C64.7325 25.8694 64.3388 24.6527 63.4842 23.806L58.0113 18.3995C55.8557 16.268 57.0463 12.56 60.0228 12.122L67.589 11.0078C68.77 10.8375 69.7925 10.083 70.3206 8.99784L73.7004 2.04846C74.3677 0.681004 75.664 0 76.9554 0C78.2516 0 79.543 0.681004 80.2103 2.04846L83.5949 8.99784C84.123 10.083 85.1408 10.8375 86.3266 11.0078L93.8879 12.122C96.8644 12.56 98.055 16.268 95.8995 18.3995L90.4265 23.806ZM38.2799 57.5926C38.2079 57.5926 38.1454 57.5831 38.0734 57.5831C38.0062 57.5831 37.939 57.5926 37.8718 57.5926C32.6725 57.4806 28.4718 53.1741 28.4718 47.8795C28.4718 42.512 32.7781 38.147 38.0734 38.147C43.3688 38.147 47.6751 42.512 47.6751 47.8795C47.6751 53.1741 43.4744 57.4806 38.2799 57.5926ZM52.6008 60.4782C56.5854 55.7676 58.5058 49.2127 56.4366 42.1225C54.5307 35.5871 49.1058 30.4241 42.543 28.9253C29.9936 26.0591 18.8701 35.6505 18.8701 47.8795C18.8701 52.7118 20.6704 57.0718 23.5461 60.4782C11.1456 65.6073 1.98558 77.5206 0.0460395 91.4869C-0.35723 94.4019 1.94237 97 4.84207 97C7.21848 97 9.22523 95.2331 9.55649 92.8486C11.5392 78.7023 23.4645 67.4279 37.8718 67.3257C37.939 67.3257 38.0062 67.3447 38.0734 67.3447C38.1454 67.3447 38.2079 67.3257 38.2799 67.3257C52.6824 67.4279 64.6124 78.7021 66.5904 92.8533C66.9264 95.233 68.9332 97 71.3048 97C74.2045 97 76.5041 94.4017 76.1008 91.4917C74.1661 77.5205 65.0013 65.617 52.6008 60.4782Z" fill="#4B0082"/>
</svg>
