<svg width="103" height="179" viewBox="0 0 103 179" fill="none" xmlns="http://www.w3.org/2000/svg">
<path d="M94 63.8947C75.5621 66.1477 64.9686 68.2204 58.465 75.0692C50.8217 83.0896 49.0114 97.7787 47 127.157C44.9215 96.6973 43.0442 82.0983 34.6633 74.2582C28.1598 68.1302 17.6334 66.1477 0 63.9849C18.3709 61.7319 29.0314 59.6593 35.4679 52.9005C43.1783 44.79 44.9886 30.1911 47 0.7229C48.8773 27.848 50.5535 42.3568 56.7889 50.7377C63.0243 59.1186 73.8859 61.4616 94 63.8947Z" fill="#ECDB3B"/>
<path d="M103 129.826C94.3695 130.88 89.4108 131.85 86.3666 135.056C82.7889 138.811 81.9415 145.686 81 159.438C80.0271 145.18 79.1484 138.347 75.2254 134.677C72.1812 131.808 67.2539 130.88 59 129.868C67.5991 128.813 72.5892 127.843 75.602 124.679C79.2111 120.883 80.0585 114.05 81 100.256C81.8787 112.953 82.6633 119.744 85.582 123.667C88.5007 127.59 93.5849 128.687 103 129.826Z" fill="#ECDB3B"/>
<path d="M41 152.694C33.5464 153.605 29.2639 154.443 26.6348 157.212C23.5449 160.454 22.8131 166.392 22 178.268C21.1598 165.955 20.4009 160.053 17.0128 156.884C14.3837 154.407 10.1284 153.605 3 152.731C10.4265 151.82 14.7361 150.982 17.3381 148.25C20.4551 144.971 21.1869 139.069 22 127.157C22.7589 138.122 23.4365 143.987 25.9572 147.375C28.4779 150.763 32.8688 151.711 41 152.694Z" fill="#ECDB3B"/>
</svg>
