<svg width="60" height="60" viewBox="0 0 60 60" fill="none" xmlns="http://www.w3.org/2000/svg">
<rect width="60" height="60" rx="10" fill="url(#paint0_linear_2388_385)"/>
<path d="M47.1532 14C48.4166 14 49.3697 15.1277 48.8599 17.2252L42.6757 46.8838C42.2435 48.9926 40.9911 49.5001 39.2622 48.519L24.5109 37.4337C24.4537 37.3919 24.4071 37.3369 24.3749 37.2731C24.3428 37.2094 24.326 37.1388 24.326 37.0672C24.326 36.9955 24.3428 36.9249 24.3749 36.8612C24.4071 36.7974 24.4537 36.7424 24.5109 36.7007L41.5452 21.0481C42.321 20.349 41.379 20.0107 40.3594 20.6422L18.9805 34.3663C18.9157 34.4093 18.8421 34.4368 18.7653 34.4466C18.6884 34.4563 18.6105 34.4482 18.5372 34.4227L9.46033 31.502C7.44325 30.9043 7.44325 29.4946 9.91473 28.491L46.2333 14.2368C46.5213 14.0962 46.8341 14.0157 47.1532 14Z" stroke="#F4EBFA" stroke-width="2" stroke-linecap="round" stroke-linejoin="round"/>
<defs>
<linearGradient id="paint0_linear_2388_385" x1="0" y1="30" x2="60" y2="30" gradientUnits="userSpaceOnUse">
<stop stop-color="#4B0082"/>
<stop offset="0.293269" stop-color="#7419B7"/>
<stop offset="0.538462" stop-color="#8218D0"/>
<stop offset="0.788462" stop-color="#8F17E7"/>
<stop offset="1" stop-color="#9112EF"/>
</linearGradient>
</defs>
</svg>
