<svg width="45" height="50" viewBox="0 0 45 50" fill="none" xmlns="http://www.w3.org/2000/svg">
<path opacity="0.5" d="M0 35.3798C0 28.6005 0 25.2108 1.9493 23.1047C3.89859 20.9985 7.03593 20.9985 13.3106 20.9985H31.0581C37.3328 20.9985 40.4701 20.9985 42.4194 23.1047C44.3688 25.2108 44.3688 28.6005 44.3688 35.3798C44.3688 42.1591 44.3688 45.5488 42.4194 47.6549C40.4701 49.7611 37.3328 49.7611 31.0581 49.7611H13.3106C7.03593 49.7611 3.89859 49.7611 1.9493 47.6549C0 45.5488 0 42.1591 0 35.3798Z" fill="#FDE047"/>
<path d="M22.1844 40.0558C24.6168 40.0558 26.5886 37.9228 26.5886 35.2914C26.5886 32.6601 24.6168 30.5271 22.1844 30.5271C19.7519 30.5271 17.7801 32.6601 17.7801 35.2914C17.7801 37.9228 19.7519 40.0558 22.1844 40.0558Z" fill="#4B0082"/>
<path d="M10.5044 16.0983C10.5044 9.18322 15.7179 3.5774 22.1492 3.5774C27.573 3.5774 32.1344 7.56602 33.4271 12.9668C33.6562 13.9234 34.5631 14.4994 35.4528 14.2532C36.3427 14.0069 36.8781 13.0318 36.6492 12.0751C34.9872 5.13214 29.1278 0 22.1492 0C13.8804 0 7.17731 7.20747 7.17731 16.0983V20.9984C8.14551 20.9207 9.24595 20.8894 10.5044 20.8768V16.0983Z" fill="#4B0082"/>
</svg>
